<svg width="128" height="128" viewBox="0 0 128 128" xmlns="http://www.w3.org/2000/svg">
  <defs>
    <linearGradient id="bg-gradient" x1="0%" y1="0%" x2="100%" y2="100%">
      <stop offset="0%" stop-color="#2877b8" />
      <stop offset="100%" stop-color="#0b1f3a" />
    </linearGradient>
    <linearGradient id="spark-gradient" x1="0%" y1="0%" x2="100%" y2="100%">
      <stop offset="0%" stop-color="#ffffff" stop-opacity="0.9" />
      <stop offset="100%" stop-color="#d7ebff" stop-opacity="0.7" />
    </linearGradient>
  </defs>
  <rect x="8" y="8" width="112" height="112" rx="28" fill="url(#bg-gradient)" />
  <path
    d="M66.6 38.2c-13.7 0-24.8 11-24.8 24.6 0 13.6 11.1 24.6 24.8 24.6 4.9 0 9.5-1.4 13.4-3.9 1.7-1.1 3.9 0.1 3.9 2.1 0 0.9-0.4 1.7-1.2 2.3-4.9 3.3-10.8 5.2-17.1 5.2-16.8 0-30.5-13.6-30.5-30.3 0-16.7 13.7-30.3 30.5-30.3 6.2 0 12 1.9 16.8 5 0.8 0.5 1.3 1.3 1.3 2.3 0 2.1-2.3 3.3-4 2.2-3.7-2.5-8.2-3.8-12.6-3.8z"
    fill="url(#spark-gradient)"
  />
  <path
    d="M86 42.5c0-2.7 2.2-4.9 4.9-4.9s4.9 2.2 4.9 4.9-2.2 4.9-4.9 4.9-4.9-2.2-4.9-4.9zm-11.5 43.4c0-2.7 2.2-4.9 4.9-4.9s4.9 2.2 4.9 4.9-2.2 4.9-4.9 4.9-4.9-2.2-4.9-4.9z"
    fill="#ffffff"
    opacity="0.85"
  />
</svg>
